<?xml version="1.0" encoding="UTF-8"?>
<svg xmlns="http://www.w3.org/2000/svg" xmlns:xlink="http://www.w3.org/1999/xlink" width="192pt" height="192pt" viewBox="0 0 065 065" version="1.1">
<g id="surface1">
<path style=" stroke:none;fill-rule:evenodd;fill:rgb(53.72549%,57.647059%,74.509804%);fill-opacity:1;" d="M 192 95.722656 C 192 68.125 149.019531 45.75 96 45.75 C 42.980469 45.75 0 68.125 0 95.722656 C 0 123.320312 42.980469 145.695312 96 145.695312 C 149.019531 145.695312 192 123.320312 192 95.722656 Z M 192 95.722656 "/>
<path style=" stroke:none;fill-rule:evenodd;fill:rgb(13.72549%,14.509804%,19.215686%);fill-opacity:1;" d="M 26.957031 125.3125 L 37.480469 72.050781 L 61.808594 72.050781 C 72.328125 72.707031 77.589844 77.96875 77.589844 87.175781 C 77.589844 102.957031 65.09375 112.160156 53.917969 111.503906 L 42.082031 111.503906 L 39.453125 125.3125 Z M 44.710938 101.640625 L 48 81.914062 L 56.546875 81.914062 C 61.152344 81.914062 64.4375 83.886719 64.4375 87.832031 C 63.78125 99.011719 58.519531 100.984375 52.601562 101.640625 Z M 75.144531 111.503906 L 85.664062 58.242188 L 98.15625 58.242188 L 95.527344 72.050781 L 107.363281 72.050781 C 117.882812 72.707031 121.828125 77.96875 120.515625 84.542969 L 115.910156 111.503906 L 102.761719 111.503906 L 107.363281 87.175781 C 108.019531 83.886719 108.019531 81.914062 103.417969 81.914062 L 93.554688 81.914062 L 87.636719 111.503906 Z M 115.070312 125.3125 L 125.589844 72.050781 L 149.917969 72.050781 C 160.4375 72.707031 165.699219 77.96875 165.699219 87.175781 C 165.699219 102.957031 153.207031 112.160156 142.027344 111.503906 L 130.191406 111.503906 L 127.5625 125.3125 Z M 132.820312 101.640625 L 136.109375 81.914062 L 144.65625 81.914062 C 149.261719 81.914062 152.546875 83.886719 152.546875 87.832031 C 151.890625 99.011719 146.628906 100.984375 140.710938 101.640625 Z M 132.820312 101.640625 "/>
</g>
</svg>
